<svg width="101" height="101" viewBox="0 0 101 101" fill="none" xmlns="http://www.w3.org/2000/svg">
<path d="M92.6172 74.1719C92.6172 64.3891 86.2844 56.0834 77.5453 53.186C80.9688 50.9324 83.2422 47.036 83.2422 42.6094C83.2422 35.6483 77.6344 29.9844 70.7422 29.9844C70.0812 29.9844 69.4375 30.0522 68.8047 30.1517C68.8922 29.896 69.0031 29.6467 69.0797 29.3878L72.3047 28.6209V18.8018L69.0828 18.0348C68.7047 16.7534 68.1969 15.5161 67.5641 14.3373L69.3063 11.4919L62.4891 4.60497L59.6719 6.36616C58.5063 5.73017 57.2812 5.2157 56.0094 4.83222L55.2516 1.57812H45.6078L44.85 4.83222C43.5797 5.2157 42.3531 5.72859 41.1875 6.36616L38.3703 4.60497L31.5531 11.4919L33.2953 14.3373C32.6641 15.5161 32.1562 16.7534 31.7766 18.0348L28.5547 18.8034V28.624L31.7781 29.391C31.8547 29.6482 31.9656 29.8976 32.0531 30.1532C31.4219 30.0522 30.7781 29.9844 30.1172 29.9844C23.225 29.9844 17.6172 35.6483 17.6172 42.6094C17.6172 47.036 19.8906 50.9324 23.3141 53.186C14.575 56.0834 8.24219 64.3891 8.24219 74.1719V80.4844H32.5031C30.0219 84.0667 28.5547 88.416 28.5547 93.1094V99.4219H72.3047V93.1094C72.3047 88.416 70.8375 84.0667 68.3563 80.4844H92.6172V74.1719ZM73.8672 56.8125C73.8672 59.3785 72.4359 61.5469 70.7422 61.5469C69.0484 61.5469 67.6172 59.3785 67.6172 56.8125C67.6172 56.3643 67.6797 55.9209 67.7734 55.4806C68.7516 55.3227 69.7422 55.2344 70.7422 55.2344C71.7562 55.2344 72.7453 55.3385 73.7156 55.4963C73.8063 55.9319 73.8672 56.3706 73.8672 56.8125ZM50.4297 71.0156C45.2594 71.0156 41.0547 66.7689 41.0547 61.5469C41.0547 56.3249 45.2594 52.0781 50.4297 52.0781C55.6 52.0781 59.8047 56.3249 59.8047 61.5469C59.8047 66.7689 55.6 71.0156 50.4297 71.0156ZM38.2672 57.125C38.4 57.1897 38.5344 57.2496 38.6656 57.3175C38.1984 58.6431 37.9297 60.0619 37.9297 61.5469C37.9297 62.1765 37.9906 62.792 38.0797 63.398L35.9984 68.0235L32.2109 63.2434L38.2672 57.125ZM50.4297 48.9219C46.1203 48.9219 42.3141 51.136 40.0656 54.4974C39.0531 53.975 38.0016 53.541 36.9234 53.1844C40.3453 50.9292 42.6172 47.0344 42.6172 42.6094C42.6172 42.3158 42.5938 42.0286 42.5734 41.7414C43.3141 42.0712 44.0734 42.3569 44.85 42.592L45.6078 45.8461H55.2516L56.0094 42.592C56.7859 42.3569 57.5453 42.0712 58.2859 41.7414C58.2656 42.0286 58.2422 42.3158 58.2422 42.6094C58.2422 47.036 60.5141 50.9292 63.9359 53.1844C62.8594 53.5395 61.8078 53.9766 60.7953 54.499C58.5469 51.1376 54.7391 48.9219 50.4297 48.9219ZM80.1172 42.6094C80.1172 47.8314 75.9125 52.0781 70.7422 52.0781C65.5719 52.0781 61.3672 47.8314 61.3672 42.6094C61.3672 37.3874 65.5719 33.1406 70.7422 33.1406C75.9125 33.1406 80.1172 37.3874 80.1172 42.6094ZM34.5594 27.6929L34.3313 26.754L31.6797 26.1227V21.3L34.3297 20.6703L34.5578 19.7313C34.9516 18.109 35.5859 16.5577 36.4484 15.1247L36.9437 14.2994L35.5094 11.959L38.8297 8.60552L41.1469 10.0542L41.9641 9.55239C43.3797 8.68442 44.9156 8.04055 46.5266 7.64286L47.4562 7.41245L48.0828 4.73438H52.7766L53.4 7.41088L54.3297 7.64128C55.9406 8.04055 57.4766 8.68284 58.8922 9.55081L59.7094 10.0527L62.0266 8.60394L65.3469 11.9575L63.9141 14.2994L64.4094 15.1247C65.2719 16.5577 65.9063 18.109 66.3 19.7313L66.5281 20.6703L69.1797 21.3015V26.1243L66.5297 26.754L66.3016 27.6929C65.9859 28.998 65.4734 30.27 64.825 31.4931C62.3453 32.8455 60.3672 35.0202 59.25 37.6525L58.8937 37.8703C57.4781 38.7382 55.9422 39.3821 54.3313 39.7798L53.4016 40.0102L52.7781 42.6867H48.0844L47.4609 40.0086L46.5312 39.7782C44.9234 39.3805 43.3875 38.7382 41.9688 37.8687L41.6125 37.6509C40.4953 35.017 38.5172 32.8424 36.0375 31.4899C35.3875 30.27 34.875 28.998 34.5594 27.6929ZM20.7422 42.6094C20.7422 37.3874 24.9469 33.1406 30.1172 33.1406C35.2875 33.1406 39.4922 37.3874 39.4922 42.6094C39.4922 47.8314 35.2875 52.0781 30.1172 52.0781C24.9469 52.0781 20.7422 47.8314 20.7422 42.6094ZM35.0562 55.9051L30.1172 60.8935L25.1922 55.9193C26.7641 55.4853 28.4109 55.2344 30.1172 55.2344C31.7969 55.2344 33.4562 55.4648 35.0562 55.9051ZM28.0234 63.2418L24.2359 68.0219L19.8734 58.3291C20.5453 57.884 21.2516 57.4927 21.9797 57.136L28.0234 63.2418ZM11.3672 74.1719C11.3672 68.7147 13.6781 63.8036 17.3484 60.3443L23.4984 74.0093L30.1172 65.6516L36.7359 74.0093L39.5531 67.7489C40.5453 69.5164 41.9453 71.0188 43.625 72.125C40.4062 73.1919 37.5172 74.9893 35.1484 77.3297H19.1797V67.861H16.0547V77.3297H11.3672V74.1719ZM50.4297 74.1719C53.1453 74.1719 55.7203 74.77 58.0531 75.8242L50.4297 93.8274L42.8063 75.8226C45.1391 74.77 47.7141 74.1719 50.4297 74.1719ZM31.6797 93.1094C31.6797 86.5412 35.0094 80.7479 40.0516 77.3502L48.0609 96.2656H39.4922V86.7969H36.3672V96.2656H31.6797V93.1094ZM69.1797 96.2656H64.4922V86.7969H61.3672V96.2656H52.7984L60.8078 77.3502C65.85 80.7479 69.1797 86.5412 69.1797 93.1094V96.2656ZM89.4922 77.3281H84.8047V67.8594H81.6797V77.3281H65.7094C63.3406 74.9878 60.45 73.1903 57.2328 72.1235C60.6562 69.8699 62.9297 65.9735 62.9297 61.5469C62.9297 60.0634 62.6609 58.6447 62.1937 57.3207C62.9516 56.9277 63.7344 56.5868 64.5359 56.3043C64.5266 56.4732 64.4922 56.6421 64.4922 56.8125C64.4922 61.1634 67.2953 64.7031 70.7422 64.7031C74.1891 64.7031 76.9922 61.1634 76.9922 56.8125C76.9922 56.6484 76.9594 56.4874 76.95 56.3233C84.2422 58.9193 89.4922 65.9293 89.4922 74.1719V77.3281Z" fill="#604CDA"/>
<path d="M50.4297 29.9844C53.8766 29.9844 56.6797 27.1532 56.6797 23.6719C56.6797 20.1905 53.8766 17.3594 50.4297 17.3594C46.9828 17.3594 44.1797 20.1905 44.1797 23.6719C44.1797 27.1532 46.9828 29.9844 50.4297 29.9844ZM50.4297 20.5156C52.1531 20.5156 53.5547 21.9312 53.5547 23.6719C53.5547 25.4125 52.1531 26.8281 50.4297 26.8281C48.7062 26.8281 47.3047 25.4125 47.3047 23.6719C47.3047 21.9312 48.7062 20.5156 50.4297 20.5156Z" fill="#604CDA"/>
<path d="M50.4297 36.2969C57.3219 36.2969 62.9297 30.633 62.9297 23.6719C62.9297 16.7108 57.3219 11.0469 50.4297 11.0469C43.5375 11.0469 37.9297 16.7108 37.9297 23.6719C37.9297 30.633 43.5375 36.2969 50.4297 36.2969ZM50.4297 14.2031C55.6 14.2031 59.8047 18.4499 59.8047 23.6719C59.8047 28.8939 55.6 33.1406 50.4297 33.1406C45.2594 33.1406 41.0547 28.8939 41.0547 23.6719C41.0547 18.4499 45.2594 14.2031 50.4297 14.2031Z" fill="#604CDA"/>
</svg>
