<?xml version="1.0" ?><svg id="Capa_1" style="enable-background:new 0 0 512 512;" version="1.1" viewBox="0 0 512 512" xml:space="preserve" xmlns="http://www.w3.org/2000/svg" xmlns:xlink="http://www.w3.org/1999/xlink"><style type="text/css">
	.st0{fill:#231F20;}
</style><g><path class="st0" d="M256,168.9c-48,0-87.1,39.1-87.1,87.1s39.1,87.1,87.1,87.1s87.1-39.1,87.1-87.1S304,168.9,256,168.9z    M256,321.8c-36.2,0-65.8-29.5-65.8-65.8s29.5-65.8,65.8-65.8s65.8,29.5,65.8,65.8S292.2,321.8,256,321.8z"/><path class="st0" d="M256,152.8c5.9,0,10.7-3.9,10.7-8.7V86c0-4.8-4.8-8.7-10.7-8.7s-10.7,3.9-10.7,8.7v58.1   C245.3,148.9,250.1,152.8,256,152.8z"/><path class="st0" d="M155.8,255.9c0-5.9-4-10.7-8.9-10.7H87.5c-4.9,0-8.9,4.8-8.9,10.7c0,5.9,4,10.7,8.9,10.7h59.4   C151.8,266.6,155.8,261.8,155.8,255.9z"/><path class="st0" d="M256,359.2c-5.9,0-10.7,3.9-10.7,8.7V426c0,4.8,4.8,8.7,10.7,8.7s10.7-3.9,10.7-8.7v-58.1   C266.7,363.1,261.9,359.2,256,359.2z"/><path class="st0" d="M169.1,327.3L128,368.3c-3.4,3.4-2.8,9.6,1.4,13.8c4.2,4.2,10.3,4.8,13.8,1.4l41.1-41.1   c3.4-3.4,2.8-9.6-1.4-13.8C178.6,324.6,172.5,323.9,169.1,327.3z"/><path class="st0" d="M169.2,184.6c3.4,3.4,9.6,2.8,13.8-1.4c4.2-4.2,4.8-10.3,1.4-13.8l-41.1-41.1c-3.4-3.4-9.6-2.8-13.8,1.4   c-4.2,4.2-4.8,10.3-1.4,13.8L169.2,184.6z"/><path class="st0" d="M424.5,245.4h-59.4c-4.9,0-8.9,4.8-8.9,10.7c0,5.9,4,10.7,8.9,10.7h59.4c4.9,0,8.9-4.8,8.9-10.7   S429.4,245.4,424.5,245.4z"/><path class="st0" d="M342.9,184.7l41.1-41.1c3.4-3.4,2.8-9.6-1.4-13.8c-4.2-4.2-10.3-4.8-13.8-1.4l-41.1,41.1   c-3.4,3.4-2.8,9.6,1.4,13.8C333.4,187.4,339.5,188.1,342.9,184.7z"/><path class="st0" d="M342.8,327.4c-3.4-3.4-9.6-2.8-13.8,1.4c-4.2,4.2-4.8,10.3-1.4,13.8l41.1,41.1c3.4,3.4,9.6,2.8,13.8-1.4   c4.2-4.2,4.8-10.3,1.4-13.8L342.8,327.4z"/></g></svg>