<svg width="607" height="404" viewBox="0 0 607 404" fill="none" xmlns="http://www.w3.org/2000/svg">
<path d="M556.995 217.057L472.074 167.881C467.459 165.204 459.399 165.527 454.066 168.598L275.841 271.163C270.509 274.193 269.923 278.89 274.539 281.566L359.49 330.733C364.105 333.409 372.175 333.086 377.508 330.016L555.682 227.45C561.015 224.38 561.601 219.724 556.995 217.057Z" fill="#7DC3EA"/>
<path d="M367.33 322.039C364.332 322.115 361.365 321.42 358.714 320.019L273.793 270.842C271.309 269.408 269.935 267.337 269.945 265.035C269.945 262.368 271.824 259.762 275.106 257.874L453.321 155.308C459.159 151.955 467.724 151.632 472.824 154.591L557.735 203.768C560.229 205.202 561.593 207.263 561.593 209.575C561.593 212.242 559.704 214.848 556.432 216.736L378.207 319.302C374.874 321.127 371.13 322.07 367.33 322.039ZM464.29 155.561C460.996 155.526 457.748 156.325 454.846 157.884L276.591 260.449C274.288 261.772 272.915 263.479 272.915 265.045C272.915 266.61 274.197 267.64 275.288 268.277L360.199 317.443C364.33 319.837 371.895 319.463 376.723 316.726L554.947 214.12C557.24 212.797 558.613 211.09 558.613 209.525C558.613 207.959 557.331 206.919 556.25 206.293L471.329 157.157C469.145 156.025 466.708 155.469 464.249 155.54L464.29 155.561Z" fill="white"/>
<path d="M356.986 300.514L268.591 249.337C265.682 247.661 264.339 245.388 264.43 243.035V230.218L269.339 235.975C269.662 235.763 269.985 235.551 270.349 235.349L451.139 131.319C458.31 127.188 469.167 126.754 475.379 130.309L562.501 180.789C564.269 178.86 567.965 174.779 567.965 174.779V187.323C568.097 190.151 566.087 193.161 562.037 195.494L381.247 299.524C374.035 303.675 363.188 304.11 356.986 300.514Z" fill="#396CAA"/>
<path d="M309.195 269.125L314.245 272.064C314.922 272.448 315.477 272.064 315.477 271.135C315.469 270.677 315.354 270.227 315.14 269.822C314.926 269.416 314.619 269.067 314.245 268.802L309.195 265.863C308.518 265.469 307.973 265.863 307.973 266.782C307.98 267.241 308.094 267.691 308.307 268.098C308.519 268.505 308.823 268.857 309.195 269.125Z" fill="#173D7A"/>
<path d="M451.161 131.299C458.332 127.169 469.189 126.734 475.401 130.289L562.503 180.789C564.27 178.86 567.967 174.78 567.967 174.78V187.324C568.098 190.152 566.088 193.162 562.038 195.495L381.248 299.525C377.239 301.7 372.76 302.865 368.199 302.919L368.371 178.951L451.161 131.299Z" fill="url(#paint0_linear)"/>
<path d="M563.804 168.668L475.429 117.492C469.218 113.906 458.37 114.34 451.189 118.502L270.399 222.532C263.218 226.663 262.43 232.925 268.642 236.52L357.017 287.697C363.218 291.292 374.066 290.858 381.257 286.687L562.047 182.657C569.218 178.475 570.006 172.213 563.804 168.668Z" fill="#D4ECFF"/>
<path d="M356.958 288.99L268.593 237.814C265.391 235.965 264.068 233.4 264.502 230.744C264.664 232.865 266.017 234.875 268.663 236.41L357.038 287.586C363.24 291.182 374.087 290.748 381.278 286.576L562.068 182.546C565.553 180.526 567.512 178.052 567.916 175.598C568.128 178.466 566.129 181.547 562.008 183.92L381.218 287.95C374.006 292.152 363.159 292.586 356.958 288.99Z" fill="white"/>
<path d="M556.995 170.69L472.074 121.513C467.459 118.846 459.399 119.17 454.066 122.24L275.841 224.755C270.509 227.785 269.923 232.481 274.539 235.148L359.49 284.325C364.105 286.991 372.175 286.668 377.508 283.598L555.682 181.042C561.015 177.972 561.601 173.316 556.995 170.69Z" fill="url(#paint1_radial)"/>
<path d="M380.841 258.781L320.918 224.188L324.746 221.977L384.669 256.569L380.841 258.781Z" fill="#D4ECFF"/>
<path d="M339.149 248.702L308.809 231.178L312.636 228.977L342.977 246.49L339.149 248.702Z" fill="#D4ECFF"/>
<path d="M353.877 257.197L344.039 251.521L347.867 249.309L357.704 254.995L353.877 257.197Z" fill="#FF2C9C"/>
<path d="M368.732 265.771L358.895 260.095L362.712 257.883L372.56 263.569L368.732 265.771Z" fill="white"/>
<path d="M339.495 241.905L314.871 227.685L318.699 225.473L343.323 239.693L339.495 241.905Z" fill="white"/>
<path d="M369.55 259.259L344.926 245.038L348.754 242.836L373.377 257.047L369.55 259.259Z" fill="#D4ECFF"/>
<path d="M351.321 228.868C350.629 229.216 349.864 229.398 349.089 229.398C348.314 229.398 347.549 229.216 346.857 228.868C346.589 228.774 346.358 228.6 346.194 228.37C346.03 228.139 345.941 227.863 345.941 227.58C345.941 227.297 346.03 227.021 346.194 226.79C346.358 226.559 346.589 226.385 346.857 226.292C347.548 225.938 348.313 225.754 349.089 225.754C349.865 225.754 350.63 225.938 351.321 226.292C351.588 226.385 351.82 226.559 351.984 226.79C352.148 227.021 352.236 227.297 352.236 227.58C352.236 227.863 352.148 228.139 351.984 228.37C351.82 228.6 351.588 228.774 351.321 228.868Z" fill="#FF2C9C"/>
<path d="M357.985 232.716C357.293 233.065 356.528 233.246 355.753 233.246C354.978 233.246 354.213 233.065 353.521 232.716C353.253 232.623 353.022 232.449 352.858 232.218C352.694 231.987 352.605 231.711 352.605 231.428C352.605 231.145 352.694 230.869 352.858 230.638C353.022 230.407 353.253 230.233 353.521 230.14C354.213 229.791 354.978 229.609 355.753 229.609C356.528 229.609 357.293 229.791 357.985 230.14C358.252 230.233 358.484 230.407 358.648 230.638C358.812 230.869 358.9 231.145 358.9 231.428C358.9 231.711 358.812 231.987 358.648 232.218C358.484 232.449 358.252 232.623 357.985 232.716Z" fill="white"/>
<path d="M364.654 236.563C363.965 236.917 363.202 237.101 362.428 237.101C361.653 237.101 360.89 236.917 360.201 236.563C359.933 236.47 359.701 236.296 359.537 236.065C359.373 235.835 359.285 235.559 359.285 235.275C359.285 234.992 359.373 234.716 359.537 234.485C359.701 234.255 359.933 234.081 360.201 233.988C360.891 233.639 361.654 233.457 362.428 233.457C363.201 233.457 363.964 233.639 364.654 233.988C364.922 234.081 365.154 234.255 365.318 234.485C365.482 234.716 365.57 234.992 365.57 235.275C365.57 235.559 365.482 235.835 365.318 236.065C365.154 236.296 364.922 236.47 364.654 236.563Z" fill="#D4ECFF"/>
<path d="M371.319 240.38C370.63 240.733 369.866 240.918 369.092 240.918C368.317 240.918 367.554 240.733 366.865 240.38C366.597 240.286 366.365 240.113 366.201 239.882C366.037 239.651 365.949 239.375 365.949 239.092C365.949 238.809 366.037 238.533 366.201 238.302C366.365 238.071 366.597 237.897 366.865 237.804C367.555 237.455 368.318 237.273 369.092 237.273C369.865 237.273 370.628 237.455 371.319 237.804C371.586 237.897 371.818 238.071 371.982 238.302C372.146 238.533 372.234 238.809 372.234 239.092C372.234 239.375 372.146 239.651 371.982 239.882C371.818 240.113 371.586 240.286 371.319 240.38Z" fill="#FF2C9C"/>
<path d="M377.993 244.259C377.302 244.612 376.537 244.797 375.761 244.797C374.985 244.797 374.22 244.612 373.529 244.259C373.261 244.166 373.029 243.992 372.865 243.761C372.701 243.53 372.613 243.254 372.613 242.971C372.613 242.688 372.701 242.412 372.865 242.181C373.029 241.95 373.261 241.776 373.529 241.683C374.221 241.334 374.985 241.152 375.761 241.152C376.536 241.152 377.301 241.334 377.993 241.683C378.26 241.776 378.492 241.95 378.656 242.181C378.82 242.412 378.908 242.688 378.908 242.971C378.908 243.254 378.82 243.53 378.656 243.761C378.492 243.992 378.26 244.166 377.993 244.259Z" fill="white"/>
<path d="M512.012 171.024L501.922 165.196L505.841 162.934L515.931 168.761L512.012 171.024Z" fill="#FF2C9C"/>
<path d="M526.063 179.133L515.973 173.305L519.891 171.043L529.981 176.871L526.063 179.133Z" fill="white"/>
<path d="M466.945 144.752L456.855 138.934L460.774 136.672L470.864 142.49L466.945 144.752Z" fill="white"/>
<path d="M509.76 176.892L495.711 168.782L499.63 166.52L513.679 174.63L509.76 176.892Z" fill="white"/>
<path d="M519.849 182.718L513.688 179.153L517.606 176.891L523.767 180.446L519.849 182.718Z" fill="#D4ECFF"/>
<path d="M538.879 260.105C538.658 260.105 538.44 260.053 538.243 259.953C537.92 259.785 537.678 259.497 537.568 259.15C537.458 258.804 537.49 258.428 537.657 258.105C538.924 255.573 540.863 253.438 543.262 251.934C544.448 251.203 545.818 250.824 547.212 250.843C549.009 250.924 551.171 249.601 553.1 247.288C554.094 246.059 555.298 245.017 556.655 244.207C557.835 243.462 559.209 243.083 560.604 243.117C562.392 243.117 564.573 241.874 566.492 239.561C567.49 238.329 568.697 237.283 570.058 236.471C571.235 235.727 572.605 235.348 573.997 235.38C575.795 235.38 577.966 234.138 579.895 231.825C580.889 230.593 582.093 229.547 583.45 228.734C584.269 228.18 585.208 227.828 586.189 227.705C587.17 227.582 588.166 227.693 589.096 228.027C589.273 228.091 589.435 228.19 589.573 228.318C589.71 228.447 589.819 228.602 589.894 228.774C589.969 228.947 590.007 229.133 590.007 229.321C590.007 229.509 589.969 229.695 589.894 229.867C589.819 230.04 589.71 230.195 589.572 230.323C589.435 230.452 589.273 230.551 589.096 230.614C588.919 230.677 588.731 230.704 588.543 230.691C588.356 230.679 588.173 230.628 588.005 230.542C587.467 230.388 586.901 230.359 586.349 230.457C585.798 230.555 585.276 230.777 584.824 231.108C583.746 231.76 582.789 232.594 581.996 233.572C579.491 236.602 576.532 238.248 573.916 238.117C573.048 238.12 572.2 238.372 571.472 238.844C570.397 239.497 569.444 240.331 568.654 241.309C566.149 244.339 563.21 245.975 560.574 245.854C559.706 245.855 558.857 246.107 558.13 246.581C557.053 247.231 556.099 248.065 555.312 249.045C552.797 252.075 549.858 253.722 547.171 253.58C546.306 253.591 545.462 253.846 544.737 254.318C542.784 255.548 541.211 257.296 540.192 259.368C540.068 259.604 539.878 259.8 539.645 259.93C539.412 260.061 539.146 260.122 538.879 260.105Z" fill="#7DC3EA"/>
<path d="M458.392 312.777C458.343 313.693 458.078 314.585 457.62 315.38C457.162 316.175 456.524 316.851 455.756 317.353C454.291 318.191 453.109 317.514 453.109 315.827C453.158 314.911 453.423 314.02 453.883 313.226C454.343 312.433 454.985 311.76 455.756 311.262C457.21 310.414 458.392 311.08 458.392 312.777Z" fill="#572BD6"/>
<path d="M466.936 307.849C466.886 308.764 466.621 309.653 466.163 310.446C465.705 311.239 465.067 311.914 464.3 312.415C462.846 313.253 461.664 312.576 461.664 310.889C461.715 309.975 461.98 309.085 462.437 308.292C462.895 307.499 463.533 306.825 464.3 306.324C465.755 305.486 466.936 306.163 466.936 307.849Z" fill="#572BD6"/>
<path d="M475.491 302.908C475.44 303.822 475.175 304.712 474.717 305.505C474.259 306.298 473.621 306.972 472.855 307.473C471.39 308.321 470.219 307.635 470.219 305.948C470.267 305.033 470.531 304.143 470.989 303.349C471.447 302.556 472.086 301.882 472.855 301.383C474.309 300.545 475.491 301.221 475.491 302.908Z" fill="#572BD6"/>
<path d="M484.044 297.948C483.996 298.864 483.73 299.756 483.27 300.549C482.81 301.343 482.169 302.016 481.398 302.514C479.943 303.362 478.762 302.675 478.762 300.999C478.811 300.083 479.076 299.191 479.534 298.396C479.992 297.602 480.63 296.926 481.398 296.423C482.862 295.605 484.044 296.292 484.044 297.948Z" fill="#572BD6"/>
<path d="M437.556 89.3454C437.511 90.2649 437.247 91.1604 436.787 91.9578C436.327 92.7552 435.683 93.4315 434.91 93.9308C433.455 94.7792 432.273 94.0924 432.273 92.4158C432.328 91.5051 432.595 90.6198 433.052 89.8306C433.51 89.0414 434.146 88.3702 434.91 87.8708C436.374 86.982 437.556 87.6688 437.556 89.3454Z" fill="#72F7FF"/>
<path d="M444.827 85.1423C444.778 86.0571 444.514 86.9474 444.056 87.7407C443.597 88.534 442.959 89.2079 442.191 89.7075C440.736 90.5559 439.555 89.8691 439.555 88.1925C439.604 87.2766 439.869 86.3852 440.327 85.5904C440.785 84.7956 441.423 84.1197 442.191 83.6172C443.645 82.8193 444.827 83.4657 444.827 85.1423Z" fill="#72F7FF"/>
<path d="M437.556 80.9413C437.506 81.8583 437.24 82.7506 436.78 83.5456C436.32 84.3405 435.68 85.0158 434.91 85.5166C433.455 86.3549 432.273 85.6681 432.273 83.9915C432.323 83.0755 432.588 82.1842 433.046 81.3894C433.504 80.5946 434.142 79.9186 434.91 79.4162C436.374 78.5779 437.556 79.2647 437.556 80.9413Z" fill="#72F7FF"/>
<path d="M444.827 76.7585C444.777 77.6744 444.512 78.5658 444.055 79.3606C443.597 80.1554 442.958 80.8313 442.191 81.3338C440.736 82.1721 439.555 81.4853 439.555 79.8087C439.604 78.8927 439.869 78.0014 440.327 77.2066C440.785 76.4118 441.423 75.7358 442.191 75.2334C443.645 74.3749 444.827 75.0617 444.827 76.7585Z" fill="#72F7FF"/>
<path d="M277.208 186.336L271.926 189.387V183.296L277.208 180.246V186.336Z" fill="#72F7FF"/>
<path d="M285.753 181.405L280.48 184.445V178.355L285.753 175.305V181.405Z" fill="#72F7FF"/>
<path d="M294.307 176.465L289.035 179.505V173.415L294.307 170.375V176.465Z" fill="#72F7FF"/>
<path d="M302.86 171.528L297.578 174.578V168.478L302.86 165.438V171.528Z" fill="#72F7FF"/>
<path d="M402.557 343.786L397.285 346.836V340.746L402.557 337.695V343.786Z" fill="#572BD6"/>
<path d="M409.882 339.501L404.609 342.551V336.46L409.882 333.41V339.501Z" fill="#572BD6"/>
<path d="M402.607 351.692L397.324 354.732V348.642L402.607 345.602V351.692Z" fill="#572BD6"/>
<path d="M409.882 347.489L404.609 350.529V344.439L409.882 341.398V347.489Z" fill="#572BD6"/>
<path d="M525.436 67.4771C524.461 68.071 523.591 68.8218 522.861 69.6991C522.739 64.6491 519.093 62.6291 514.609 65.1743C513.089 66.0982 511.745 67.2849 510.64 68.679C508.62 65.1844 504.499 64.3764 499.701 67.1438C492.955 71.0424 487.48 80.5162 487.48 88.3538C487.483 88.9617 487.524 89.5688 487.602 90.1718C486.414 89.9424 485.185 90.1891 484.178 90.8586C482.482 91.968 481.071 93.4597 480.057 95.2139C479.043 96.9681 478.455 98.9357 478.34 100.959C478.34 104.685 480.956 106.2 484.178 104.332L525.436 80.4657C527.077 79.3966 528.443 77.9544 529.42 76.2571C530.398 74.5597 530.961 72.6552 531.062 70.699C531.062 67.1438 528.547 65.649 525.436 67.4771Z" fill="#72F7FF"/>
<path opacity="0.4" d="M283.076 314.464C282.041 315.086 281.119 315.878 280.349 316.807C280.217 311.424 276.359 309.272 271.602 312.019C269.998 312.986 268.576 314.227 267.4 315.686C265.289 311.989 260.906 311.131 255.826 314.06C248.675 318.191 242.888 328.2 242.888 336.472C242.891 337.116 242.931 337.76 243.009 338.401C241.755 338.162 240.457 338.423 239.393 339.128C237.598 340.308 236.106 341.893 235.037 343.757C233.969 345.62 233.354 347.709 233.242 349.854C233.242 353.803 236.01 355.399 239.433 353.429L283.116 328.179C284.85 327.053 286.294 325.533 287.33 323.742C288.365 321.952 288.963 319.943 289.075 317.877C289.035 314.11 286.368 312.565 283.076 314.464Z" fill="#72F7FF"/>
<path d="M348.734 169.093L409.425 134.056C415.99 130.258 415.172 123.633 407.587 119.26C400.002 114.876 388.518 114.401 381.953 118.189L321.262 153.236C314.697 157.023 315.515 163.649 323.1 168.032C330.695 172.406 342.169 172.891 348.734 169.093Z" fill="#7DC3EA"/>
<path d="M337.574 162.448C332.256 162.474 327.02 161.139 322.363 158.57C317.899 155.994 315.344 152.51 315.344 148.914C315.344 145.884 317.182 143.127 320.525 141.198L381.206 106.161C388.276 102.121 400.214 102.535 408.324 107.171C412.788 109.746 415.344 113.231 415.344 116.827C415.344 119.857 413.506 122.614 410.163 124.543L349.482 159.58C345.825 161.543 341.724 162.531 337.574 162.448ZM393.124 106.383C389.509 106.271 385.926 107.092 382.721 108.767L322.03 143.804C319.616 145.198 318.333 146.975 318.333 148.945C318.333 151.409 320.353 153.995 323.868 156.015C331.029 160.156 341.866 160.63 348.017 157.075L408.698 122.038C411.112 120.644 412.395 118.867 412.395 116.897C412.395 114.423 410.375 111.847 406.86 109.827C402.635 107.526 397.894 106.341 393.083 106.383H393.124Z" fill="#72F7FF"/>
<path d="M382.093 115.201V110.797L387.305 84.537L382.164 81.3555L371.862 87.0418L371.781 120.857C371.781 123.129 372.63 124.664 373.943 125.169L378.528 128.048L379.104 125.876L379.881 121.907C381.249 119.931 382.017 117.602 382.093 115.201Z" fill="#5793CE"/>
<path d="M382.076 127.976C379.228 129.552 376.935 127.794 376.945 124.057L377.016 90.2527L387.318 84.5664L387.247 118.371C387.237 122.108 384.924 126.411 382.076 127.976Z" fill="#5793CE"/>
<path d="M409.881 66.3586C409.881 57.7837 403.821 47.3504 396.428 43.0579C392.58 40.8359 389.115 40.7046 386.661 42.2701L345.867 65.8233L366.916 97.4464L405.891 75.1052L405.992 75.0446H406.073C408.427 73.5498 409.881 70.5703 409.881 66.3586Z" fill="url(#paint2_linear)"/>
<path d="M357.684 111.667C357.684 94.7394 345.796 74.1556 331.131 65.6817C323.819 61.4599 317.193 61.0559 312.396 63.8031L307.982 66.3887L309.497 66.0756C306.406 69.2975 304.578 74.3879 304.578 81.0135C304.578 97.9411 316.466 118.535 331.131 126.999C336.888 130.322 342.241 131.281 346.564 130.201L345.867 131.211L349.907 128.867H349.978L350.119 128.776C354.785 125.928 357.684 120.03 357.684 111.667Z" fill="#D4ECFF"/>
<path d="M354.573 113.485C354.573 96.5471 342.685 75.9633 328.02 67.4995C320.809 63.3282 314.264 62.8838 309.487 65.4795L308.82 65.8734C308.588 66.0148 308.366 66.1663 308.143 66.3279L309.497 66.0451C306.406 69.267 304.578 74.3574 304.578 80.983C304.578 97.9106 316.466 118.504 331.131 126.968C336.888 130.291 342.241 131.251 346.564 130.17L345.928 131.089C351.24 128.584 354.573 122.443 354.573 113.485Z" fill="white"/>
<path d="M390.67 77.8193C390.67 68.9919 384.479 58.2657 376.833 53.852C373.358 51.832 370.187 51.4886 367.743 52.5289H367.692H367.632L367.319 52.6804C352.876 59.8093 336.883 63.2251 320.788 62.6188L316.223 62.4471L353.35 126.077L355.37 122.189C362.7 108.019 373.413 95.8767 386.559 86.8386C389.094 85.3842 390.67 82.2734 390.67 77.8193Z" fill="url(#paint3_linear)"/>
<path d="M345.918 131.187C356.285 125.202 356.285 105.793 345.918 87.8375C335.551 69.8816 318.743 60.1774 308.376 66.1627C298.009 72.148 298.009 91.5562 308.376 109.512C318.743 127.468 335.551 137.172 345.918 131.187Z" fill="#5793CE"/>
<path d="M343.613 127.198C352.71 121.946 352.711 104.918 343.616 89.1654C334.521 73.4123 319.774 64.8992 310.677 70.151C301.581 75.4028 301.58 92.4306 310.675 108.184C319.77 123.937 334.517 132.45 343.613 127.198Z" fill="#173D7A"/>
<path d="M316.648 93.9442L337.611 80.7148C342.203 87.6033 346.091 94.9366 349.214 102.604L349.265 102.728L323.052 105.377L316.648 93.9442Z" fill="#D4ECFF"/>
<path d="M324.786 102.195C324.786 105.164 322.696 106.366 320.13 104.881C318.775 103.995 317.648 102.801 316.84 101.397C316.033 99.9934 315.568 98.4187 315.484 96.8013C315.484 93.842 317.565 92.6401 320.13 94.1248C321.487 95.0084 322.616 96.1998 323.425 97.6021C324.234 99.0044 324.701 100.578 324.786 102.195Z" fill="#5793CE"/>
<path d="M328.231 125.098C315.363 117.675 304.95 99.6056 304.95 84.7586C304.95 76.9513 307.819 71.6286 312.414 69.3359C307.192 71.2448 303.859 76.82 303.859 85.2232C303.859 100.08 314.283 118.139 327.15 125.563C333.21 129.088 338.815 129.603 342.977 127.583C338.947 129.017 333.816 128.33 328.231 125.098Z" fill="white"/>
<path d="M374.461 115.492L374.269 115.381C373.898 115.114 373.594 114.764 373.382 114.359C373.17 113.954 373.055 113.505 373.047 113.048V106.533C373.047 105.634 373.592 105.22 374.269 105.604L374.451 105.705C374.823 105.977 375.126 106.332 375.335 106.743C375.543 107.154 375.652 107.608 375.653 108.068V114.593C375.653 115.462 375.138 115.876 374.461 115.492Z" fill="white"/>
<path d="M424.637 225.846C443.803 225.846 459.341 216.875 459.341 205.808C459.341 194.741 443.803 185.77 424.637 185.77C405.471 185.77 389.934 194.741 389.934 205.808C389.934 216.875 405.471 225.846 424.637 225.846Z" fill="#092E63"/>
<path d="M467.784 178.618V166.498H465.542C462.997 162.422 459.427 159.086 455.189 156.822C438.343 147.085 411.022 147.085 394.175 156.822C389.905 159.079 386.303 162.419 383.732 166.508H381.449V178.557C381.449 184.95 385.621 191.354 394.074 196.232C410.931 205.968 438.242 205.968 455.098 196.232C463.572 191.374 467.784 185.001 467.784 178.618Z" fill="#572BD6"/>
<path d="M455.139 156.834C446.715 151.965 435.676 149.531 424.637 149.531V203.536C435.676 203.536 446.715 201.102 455.149 196.244C463.582 191.386 467.784 185.002 467.784 178.619V166.499H465.542C462.981 162.421 459.394 159.088 455.139 156.834Z" fill="#230088"/>
<path d="M424.636 191.415C448.465 191.415 467.783 180.264 467.783 166.508C467.783 152.753 448.465 141.602 424.636 141.602C400.806 141.602 381.488 152.753 381.488 166.508C381.488 180.264 400.806 191.415 424.636 191.415Z" fill="url(#paint4_linear)"/>
<path d="M455.15 184.123C438.293 193.85 410.982 193.85 394.125 184.123C386.045 179.457 381.894 173.407 381.561 167.297C381.197 173.943 385.359 180.639 394.125 185.709C410.982 195.435 438.293 195.435 455.15 185.709C463.916 180.659 468.078 173.943 467.714 167.307C467.381 173.407 463.22 179.457 455.15 184.123Z" fill="white"/>
<path d="M407.437 167.599L424.324 157.842C426.233 156.741 429.495 157.226 430.263 158.721L437.333 172.568C438.131 174.133 435.616 175.598 432.909 175.123L408.982 171.023C406.356 170.588 405.528 168.669 407.437 167.599Z" fill="white"/>
<path d="M417.878 243.934L348.996 204.17L350.824 203.109L419.706 242.883L417.878 243.934Z" fill="#79B1E0"/>
<path d="M371.216 218.15L347.996 204.747L351.824 202.535L375.034 215.938L371.216 218.15Z" fill="#D4ECFF"/>
<path d="M370.308 218.875L369.328 218.33L375.328 214.855L376.307 215.411L370.308 218.875Z" fill="white"/>
<path d="M193.54 315.321C193.318 315.321 193.099 315.265 192.904 315.159C192.743 315.075 192.599 314.96 192.483 314.82C192.366 314.681 192.278 314.52 192.224 314.346C192.169 314.173 192.149 313.99 192.166 313.809C192.182 313.628 192.234 313.452 192.318 313.29C193.597 310.739 195.554 308.59 197.974 307.079C199.161 306.346 200.539 305.98 201.933 306.029C203.721 306.13 205.973 304.766 207.872 302.433C208.877 301.191 210.094 300.138 211.468 299.322C212.655 298.567 214.041 298.184 215.447 298.221C217.275 298.302 219.487 296.969 221.396 294.626C222.401 293.384 223.618 292.331 224.991 291.515C226.181 290.764 227.565 290.381 228.971 290.414C230.769 290.495 233.011 289.162 234.92 286.828C235.917 285.577 237.136 284.519 238.515 283.708C239.341 283.148 240.288 282.792 241.279 282.669C242.269 282.546 243.274 282.66 244.212 283.001C244.548 283.148 244.812 283.423 244.945 283.765C245.079 284.107 245.071 284.487 244.924 284.824C244.776 285.16 244.502 285.424 244.16 285.557C243.818 285.691 243.437 285.683 243.101 285.536C242.559 285.381 241.989 285.352 241.435 285.45C240.88 285.548 240.355 285.771 239.899 286.101C238.809 286.761 237.842 287.605 237.041 288.596C234.516 291.626 231.556 293.313 228.84 293.171C227.966 293.187 227.114 293.442 226.375 293.909C225.289 294.565 224.325 295.406 223.527 296.393C220.992 299.423 218.033 301.13 215.316 300.979C214.442 300.996 213.591 301.251 212.851 301.716C211.764 302.372 210.801 303.213 210.003 304.2C207.478 307.23 204.509 308.927 201.792 308.786C200.918 308.8 200.065 309.055 199.327 309.523C197.373 310.761 195.791 312.506 194.752 314.573C194.635 314.794 194.461 314.98 194.248 315.112C194.035 315.243 193.79 315.315 193.54 315.321Z" fill="#572BD6"/>
<path d="M542.756 131.301C541.733 131.312 540.725 131.05 539.837 130.543C537.817 129.352 536.625 126.948 536.625 123.766C536.625 117.706 540.756 110.545 546.018 107.505C548.775 105.91 551.422 105.697 553.492 106.889C555.563 108.081 556.694 110.485 556.694 113.666C556.694 119.726 552.573 126.887 547.311 129.927C545.94 130.778 544.368 131.252 542.756 131.301ZM550.563 108.707C549.41 108.757 548.289 109.105 547.311 109.717C542.837 112.303 539.231 118.595 539.231 123.756C539.231 125.978 539.918 127.594 541.15 128.301C542.382 129.008 544.129 128.796 546.048 127.685C550.513 125.11 554.128 118.817 554.128 113.656C554.128 111.434 553.452 109.818 552.209 109.111C551.713 108.811 551.143 108.654 550.563 108.657V108.707Z" fill="#72F7FF"/>
<defs>
<linearGradient id="paint0_linear" x1="368.169" y1="215.422" x2="579.612" y2="215.422" gradientUnits="userSpaceOnUse">
<stop stop-color="#86B8E0"/>
<stop offset="0.12" stop-color="#98C4E7"/>
<stop offset="0.33" stop-color="#B2D6F2"/>
<stop offset="0.54" stop-color="#C5E2F9"/>
<stop offset="0.76" stop-color="#D0EAFE"/>
<stop offset="1" stop-color="#D4ECFF"/>
</linearGradient>
<radialGradient id="paint1_radial" cx="0" cy="0" r="1" gradientUnits="userSpaceOnUse" gradientTransform="translate(558.965 174.154) scale(205.959)">
<stop stop-color="#173D7A"/>
<stop offset="0.42" stop-color="#153B76"/>
<stop offset="0.82" stop-color="#0E336B"/>
<stop offset="1" stop-color="#092E63"/>
</radialGradient>
<linearGradient id="paint2_linear" x1="369.43" y1="52.8347" x2="395.66" y2="87.1141" gradientUnits="userSpaceOnUse">
<stop stop-color="#AA92F0"/>
<stop offset="1" stop-color="#CD98F8"/>
</linearGradient>
<linearGradient id="paint3_linear" x1="314.112" y1="64.6085" x2="382.135" y2="98.3931" gradientUnits="userSpaceOnUse">
<stop stop-color="#D4ECFF"/>
<stop offset="0.24" stop-color="#D0EAFE"/>
<stop offset="0.46" stop-color="#C5E2F9"/>
<stop offset="0.67" stop-color="#B2D6F2"/>
<stop offset="0.88" stop-color="#98C4E7"/>
<stop offset="1" stop-color="#86B8E0"/>
</linearGradient>
<linearGradient id="paint4_linear" x1="32895.5" y1="8353.81" x2="40268.5" y2="8353.81" gradientUnits="userSpaceOnUse">
<stop stop-color="#B49AFE"/>
<stop offset="0.31" stop-color="#FB289B"/>
<stop offset="0.6" stop-color="#F01D97"/>
<stop offset="0.88" stop-color="#DD0A91"/>
<stop offset="1" stop-color="#D3008D"/>
</linearGradient>
</defs>
</svg>
